<?xml version="1.0"?>
<svg xmlns="http://www.w3.org/2000/svg" xmlns:xlink="http://www.w3.org/1999/xlink" version="1.1" id="Capa_1" x="0px" y="0px" viewBox="0 0 512 512" style="enable-background:new 0 0 512 512;" xml:space="preserve" width="512px" height="512px"><g><g>
	<g>
		<path d="M503.347,384.999h-52.898V72.304l59.349-59.214c2.933-2.926,2.939-7.676,0.012-10.608    c-2.926-2.933-7.676-2.939-10.608-0.012l-59.494,59.359H126.462V8.115c0-4.143-3.359-7.502-7.502-7.502H68.457    c-4.143,0-7.502,3.359-7.502,7.502v53.713H8.057c-4.143,0-7.502,3.359-7.502,7.502v50.505c0,4.143,3.359,7.502,7.502,7.502h52.898    v43.877c0,4.143,3.359,7.502,7.502,7.502s7.502-3.359,7.502-7.502v-51.379V69.33V15.616h35.5V69.33v50.505v272.124    c-0.129,1.872,0.438,3.782,1.708,5.308c0.036,0.044,0.077,0.083,0.114,0.126c0.112,0.129,0.221,0.259,0.344,0.381    c0.005,0.005,0.01,0.009,0.015,0.014c1.358,1.367,3.24,2.214,5.32,2.214h273.482h50.505h52.898v35.501h-52.898h-50.505H267.218    c-4.143,0-7.502,3.359-7.502,7.502c0,4.143,3.359,7.502,7.502,7.502h117.723v53.713c0,4.143,3.359,7.502,7.502,7.502h50.505    c4.143,0,7.502-3.359,7.502-7.502v-53.713h52.898c4.143,0,7.502-3.359,7.502-7.502v-50.505    C510.849,388.358,507.49,384.999,503.347,384.999z M60.956,112.333H15.559v-0.001v-35.5h45.397V112.333z M126.462,127.335h247.59    l-247.59,247.034V127.335z M435.446,384.999h-35.502v-180.81c0-4.143-3.359-7.502-7.502-7.502c-4.143,0-7.502,3.359-7.502,7.502    v180.809H137.05l247.891-247.334v36.519c0,4.143,3.359,7.502,7.502,7.502c4.143,0,7.502-3.359,7.502-7.502v-54.349    c0-2.101-0.866-3.998-2.257-5.359c-0.021-0.021-0.038-0.044-0.059-0.065c-1.811-1.815-4.32-2.506-6.664-2.077H126.462v-35.5    h308.983V384.999z M435.446,496.718h-35.502v-46.212h35.502V496.718z" data-original="#000000" class="active-path" data-old_color="#000000" fill="#AAAAAA"/>
	</g>
</g><g>
	<g>
		<path d="M237.212,435.503H75.959V201.22c0-4.143-3.359-7.502-7.502-7.502s-7.502,3.359-7.502,7.502v238.51L2.203,498.35    c-2.933,2.926-2.939,7.676-0.012,10.609c1.465,1.468,3.388,2.203,5.31,2.203c1.917,0,3.834-0.73,5.298-2.191l58.596-58.464    h165.816c4.143,0,7.502-3.359,7.502-7.502C244.713,438.862,241.355,435.503,237.212,435.503z" data-original="#000000" class="active-path" data-old_color="#000000" fill="#AAAAAA"/>
	</g>
</g></g> </svg>
