<svg id="Capa_1" enable-background="new 0 0 512 512" height="512" viewBox="0 0 512 512" width="512" xmlns="http://www.w3.org/2000/svg"><g><g><g><path d="m288.687 47.692h-207.116c-45.05 0-81.571 36.521-81.571 81.572v82.318c0 29.841 16.034 55.924 39.949 70.142 3.096 1.841 5.003 5.164 5.003 8.766v44.523c0 5.45 6.59 8.18 10.444 4.326l43.199-43.199c1.912-1.912 4.506-2.986 7.21-2.986h182.884c45.051 0 81.571-36.521 81.571-81.571v-82.318c-.002-45.052-36.522-81.573-81.573-81.573z" fill="#f9c301"/></g><g><path d="m311.837 51.045c2.169 7.341 3.353 15.105 3.353 23.15v82.318c0 45.05-36.521 81.571-81.571 81.571h-207.116c-8.05 0-15.82-1.185-23.166-3.358 5.885 19.906 19.163 36.636 36.653 47.021 3.082 1.83 4.962 5.156 4.962 8.741v44.523c0 5.45 6.59 8.18 10.444 4.326l43.199-43.199c1.912-1.912 4.506-2.986 7.21-2.986h182.884c45.051 0 81.571-36.521 81.571-81.571v-82.318c-.002-37.006-24.652-68.237-58.423-78.218z" fill="#d4a806"/></g><g><g><circle cx="67.586" cy="140.069" fill="#7c8b96" r="11.401"/></g><g><circle cx="102.116" cy="140.069" fill="#7c8b96" r="11.401"/></g><g><circle cx="136.444" cy="140.069" fill="#7c8b96" r="11.401"/></g></g></g><g><g><path d="m430.429 162.308h-208.136c-45.05 0-81.571 36.521-81.571 81.571v82.318c0 45.051 36.521 81.571 81.571 81.571h176.177c2.704 0 5.298 1.074 7.21 2.986l51.749 51.749c3.854 3.854 10.444 1.124 10.444-4.326v-53.569c0-3.536 1.823-6.835 4.845-8.671 23.544-14.303 39.282-40.176 39.282-69.74v-82.318c0-45.051-36.521-81.571-81.571-81.571z" fill="#fce25c"/></g><g><path d="m453.578 165.661c2.17 7.341 3.353 15.105 3.353 23.15v82.318c0 45.051-36.521 81.571-81.571 81.571h-208.135c-8.044 0-15.809-1.183-23.15-3.353 9.98 33.771 41.212 58.421 78.218 58.421h176.177c2.704 0 5.298 1.074 7.21 2.986l51.749 51.749c3.854 3.854 10.444 1.124 10.444-4.326v-53.569c0-3.536 1.823-6.835 4.845-8.671 23.544-14.304 39.282-40.176 39.282-69.74v-82.318c0-37.006-24.651-68.238-58.422-78.218z" fill="#f9c301"/></g><g><path d="m291.289 355.865c-4.223 0-7.647-3.423-7.647-7.647s3.424-7.647 7.647-7.647c15.122 0 27.424-12.303 27.424-27.425v-51.811c0-30.045-24.443-54.489-54.488-54.489s-54.488 24.444-54.488 54.489v27.063c0 4.224-3.424 7.647-7.647 7.647s-7.647-3.423-7.647-7.647v-27.063c0-38.478 31.304-69.783 69.782-69.783s69.782 31.304 69.782 69.783v51.811c.001 23.555-19.162 42.719-42.718 42.719z" fill="#7c8b96"/></g><g><path d="m202.427 319.304h-.672c-9.457 0-17.124-7.667-17.124-17.124v-28.247c0-9.457 7.667-17.124 17.124-17.124h.672c9.457 0 17.124 7.667 17.124 17.124v28.247c0 9.457-7.667 17.124-17.124 17.124z" fill="#7c8b96"/></g><g><path d="m326.697 319.304h-.672c-9.457 0-17.124-7.667-17.124-17.124v-28.247c0-9.457 7.667-17.124 17.124-17.124h.672c9.457 0 17.124 7.667 17.124 17.124v28.247c0 9.457-7.667 17.124-17.124 17.124z" fill="#7c8b96"/></g><g><path d="m205.433 257.137c.21 1.082.328 2.198.328 3.341v27.575c0 9.643-7.817 17.46-17.46 17.46-1.144 0-2.259-.118-3.341-.328 1.56 8.043 8.633 14.118 17.132 14.118 9.643 0 17.46-7.817 17.46-17.46v-27.575c-.001-8.498-6.076-15.571-14.119-17.131z" fill="#465961"/></g><g><path d="m329.702 257.137c.21 1.082.328 2.198.328 3.341v27.575c0 9.643-7.817 17.46-17.46 17.46-1.144 0-2.259-.118-3.341-.328 1.56 8.043 8.633 14.118 17.132 14.118 9.643 0 17.46-7.817 17.46-17.46v-27.575c0-8.498-6.076-15.571-14.119-17.131z" fill="#465961"/></g><g><ellipse cx="282.807" cy="348.217" fill="#7c8b96" rx="17.972" ry="14.12"/></g><g><path d="m290.777 335.575c.282.993.443 2.023.443 3.083 0 7.798-8.047 14.12-17.972 14.12-2.867 0-5.566-.541-7.971-1.479 1.792 6.314 8.953 11.038 17.53 11.038 9.926 0 17.972-6.322 17.972-14.12 0-5.546-4.08-10.332-10.002-12.642z" fill="#465961"/></g><g><path d="m432.25 234.89h-60.911c-4.223 0-7.647-3.423-7.647-7.647s3.424-7.647 7.647-7.647h60.911c4.223 0 7.647 3.423 7.647 7.647s-3.424 7.647-7.647 7.647z" fill="#7c8b96"/></g><g><path d="m418.306 269.123h-46.967c-4.223 0-7.647-3.423-7.647-7.647s3.424-7.647 7.647-7.647h46.967c4.223 0 7.647 3.423 7.647 7.647s-3.424 7.647-7.647 7.647z" fill="#7c8b96"/></g></g></g></svg>