<?xml version="1.0"?>
<svg xmlns="http://www.w3.org/2000/svg" xmlns:xlink="http://www.w3.org/1999/xlink" version="1.1" id="Capa_1" x="0px" y="0px" viewBox="0 0 485.136 485.136" style="enable-background:new 0 0 485.136 485.136;" xml:space="preserve" width="512px" height="512px"><g><g>
	<g>
		<g>
			<rect x="27.412" y="283.441" transform="matrix(0.7071 -0.7071 0.7071 0.7071 -195.7083 110.4018)" width="16" height="16" data-original="#000000" class="active-path" data-old_color="#000000" fill="#AAAAAA"/>
			<path d="M482.7,126.413c-3.124-3.123-8.188-3.123-11.312,0c-9.898,9.851-22.228,16.906-35.736,20.448L424.22,80.589     c-1.727-10.005-9.563-17.841-19.568-19.568l-66.968-11.544c3.501-13.684,10.603-26.181,20.568-36.192     c2.919-3.317,2.597-8.372-0.72-11.291c-3.03-2.667-7.571-2.659-10.592,0.019c-12.353,12.321-21.077,27.803-25.216,44.752     L259.9,36.061c-7.684-1.317-15.53,1.173-21.048,6.68L7.124,274.469c-9.369,9.372-9.369,24.564,0,33.936l169.704,169.704     c9.372,9.369,24.564,9.369,33.936,0l231.728-231.728c5.514-5.511,8.008-13.357,6.688-21.04l-10.752-62.528     c16.775-4.188,32.09-12.874,44.296-25.12C485.82,134.566,485.809,129.527,482.7,126.413z M431.228,235.069L431.228,235.069     L199.46,466.813c-3.124,3.123-8.188,3.123-11.312,0l-169.72-169.72c-3.123-3.124-3.123-8.188,0-11.312L250.172,54.053     c1.498-1.498,3.529-2.341,5.648-2.344c0.456,0,0.911,0.04,1.36,0.12l144.752,24.952c3.339,0.574,5.954,3.189,6.528,6.528     l11.432,66.344c-10.143,0.693-20.324-0.606-29.968-3.824c7.174-20.73-3.815-43.352-24.546-50.526     c-10.517-3.64-22.079-2.7-31.87,2.59c-2.417,0.109-4.588,1.513-5.68,3.672c-17.422,13.496-20.605,38.561-7.109,55.983     c13.496,17.422,38.561,20.605,55.983,7.109c1.326-1.028,2.587-2.138,3.774-3.324c0.464-0.472,0.8-1.016,1.224-1.504     c10.501,3.973,21.629,6.029,32.856,6.072c2.688,0,5.376-0.176,8.072-0.408l10.784,62.568     C433.862,230.613,433.048,233.225,431.228,235.069z M358.252,126.413h-0.032c-4.871-4.884-9.082-10.384-12.528-16.36     c12.604-3.666,25.794,3.58,29.46,16.184c1.243,4.274,1.261,8.812,0.052,13.096C368.996,135.812,363.293,131.466,358.252,126.413z      M366.108,152.485c-9.591,6.553-22.454,5.523-30.88-2.472c-8.219-8.259-9.318-21.227-2.608-30.752     C340.761,133.015,352.29,144.454,366.108,152.485z" data-original="#000000" class="active-path" data-old_color="#000000" fill="#AAAAAA"/>
			<path d="M289.972,183.957l-11.128,11.128c-7.98-5.713-17.261-9.34-27-10.552H249.7c-20.133,1.773-37.431,15.013-44.4,33.984     c-5.919,17.291-1.442,36.444,11.528,49.32c8.645,8.588,11.63,21.357,7.688,32.888c-4.83,12.885-16.615,21.862-30.32,23.096     c-13.705-1.234-25.49-10.211-30.32-23.096c-3.942-11.531-0.957-24.3,7.688-32.888l-11.312-11.312     c-12.968,12.877-17.447,32.027-11.536,49.32c1.536,4.564,3.765,8.865,6.608,12.752l-12.44,12.44l11.312,11.312l12.616-12.616     c7.827,5.442,16.854,8.909,26.312,10.104h2.144c20.135-1.779,37.434-15.02,44.408-33.992c5.911-17.293,1.432-36.443-11.536-49.32     c-8.646-8.587-11.634-21.356-7.696-32.888c4.835-12.879,16.619-21.852,30.32-23.088c13.701,1.236,25.485,10.209,30.32,23.088     c3.946,11.53,0.96,24.302-7.688,32.888l11.312,11.312c12.969-12.876,17.449-32.027,11.536-49.32     c-1.461-4.293-3.533-8.354-6.152-12.056l11.2-11.2L289.972,183.957z" data-original="#000000" class="active-path" data-old_color="#000000" fill="#AAAAAA"/>
			<rect x="50.013" y="306.062" transform="matrix(-0.7072 -0.707 0.707 -0.7072 -122.995 577.1898)" width="16" height="16" data-original="#000000" class="active-path" data-old_color="#000000" fill="#AAAAAA"/>
			<rect x="72.641" y="328.698" transform="matrix(-0.7069 -0.7074 0.7074 -0.7069 -100.5217 631.738)" width="16" height="16" data-original="#000000" class="active-path" data-old_color="#000000" fill="#AAAAAA"/>
			<rect x="95.295" y="351.31" transform="matrix(-0.7071 -0.7071 0.7071 -0.7071 -77.7352 686.4219)" width="16" height="16" data-original="#000000" class="active-path" data-old_color="#000000" fill="#AAAAAA"/>
			<rect x="117.925" y="373.941" transform="matrix(0.707 -0.7072 0.7072 0.707 -233.2226 200.974)" width="16" height="16" data-original="#000000" class="active-path" data-old_color="#000000" fill="#AAAAAA"/>
			<rect x="140.547" y="396.577" transform="matrix(-0.7071 -0.7071 0.7071 -0.7071 -32.4929 795.6946)" width="16" height="16" data-original="#000000" class="active-path" data-old_color="#000000" fill="#AAAAAA"/>
			<rect x="163.178" y="419.201" transform="matrix(-0.7071 -0.7071 0.7071 -0.7071 -9.8564 850.319)" width="16" height="16" data-original="#000000" class="active-path" data-old_color="#000000" fill="#AAAAAA"/>
			<rect x="185.829" y="441.825" transform="matrix(-0.7071 -0.7071 0.7071 -0.7071 12.8131 904.9569)" width="16" height="16" data-original="#000000" class="active-path" data-old_color="#000000" fill="#AAAAAA"/>
		</g>
	</g>
</g></g> </svg>
